<svg xmlns="http://www.w3.org/2000/svg" viewBox="0 0 1200 630" role="img" aria-label="Bhavesh Meghwal portfolio">
  <defs>
    <linearGradient id="bg" x1="0%" y1="0%" x2="100%" y2="100%">
      <stop offset="0%" stop-color="#09090b"/>
      <stop offset="100%" stop-color="#101218"/>
    </linearGradient>
    <linearGradient id="trace" x1="0%" y1="0%" x2="100%" y2="0%">
      <stop offset="0%" stop-color="#38bdf8" stop-opacity=".25"/>
      <stop offset="50%" stop-color="#60a5fa"/>
      <stop offset="100%" stop-color="#38bdf8" stop-opacity=".55"/>
    </linearGradient>
  </defs>

  <rect width="1200" height="630" fill="url(#bg)"/>
  <g opacity=".1" stroke="#ffffff">
    <path d="M0 110 H1200"/>
    <path d="M0 240 H1200"/>
    <path d="M0 370 H1200"/>
    <path d="M0 500 H1200"/>
    <path d="M180 0 V630"/>
    <path d="M420 0 V630"/>
    <path d="M660 0 V630"/>
    <path d="M900 0 V630"/>
  </g>

  <path d="M90 470 L260 420 L390 438 L560 310 L700 338 L860 210 L980 246 L1120 156" fill="none" stroke="url(#trace)" stroke-width="8" stroke-linecap="round"/>

  <text x="90" y="140" fill="#38bdf8" font-family="JetBrains Mono, monospace" font-size="26" letter-spacing="5">BHAVESH MEGHWAL</text>
  <text x="90" y="260" fill="#f4f4f5" font-family="Space Grotesk, Arial, sans-serif" font-size="82" font-weight="700">
    Engineer building
  </text>
  <text x="90" y="350" fill="#f4f4f5" font-family="Space Grotesk, Arial, sans-serif" font-size="82" font-weight="700">
    robotics, AI, and
  </text>
  <text x="90" y="440" fill="#f4f4f5" font-family="Space Grotesk, Arial, sans-serif" font-size="82" font-weight="700">
    product systems
  </text>
  <text x="90" y="542" fill="#a1a1aa" font-family="IBM Plex Sans, Arial, sans-serif" font-size="30">
    Portfolio, case studies, and writing
  </text>
</svg>
